#!OML:ASF F:\VICON\USERDATA\INSTALL\rory3\rory3.ASF
:FULLY-SPECIFIED
:DEGREES
471
root 1.20958 15.3068 7.49347 20.3571 1.19501 -7.25044
lowerback 1.08133 0.26018 5.37654
upperback -5.16116 0.728272 2.94118
thorax -5.95592 0.18204 0.00934967
lowerneck -16.0142 -3.95062 -7.61672
upperneck 14.634 -4.76292 6.58939
head 7.47644 -2.09973 2.87938
rclavicle 1.24737e-014 -5.42682e-014
rhumerus -37.9574 11.3096 -78.7994
rradius 52.508
rwrist 13.1963
rhand -27.4064 -51.8438
rfingers 7.12502
rthumb -0.812634 -81.822
lclavicle 1.24737e-014 -5.42682e-014
lhumerus -38.1279 -20.1682 77.7242
lradius 66.7402
lwrist -9.38909
lhand -30.4406 -45.4314
lfingers 7.12502
lthumb -3.74291 -15.4846
rfemur -52.7327 0.41939 18.9204
rtibia 66.8907
rfoot -23.3548 -20.6847
rtoes -23.6921
lfemur -56.1597 1.01709 -9.597
ltibia 71.2184
lfoot -30.3386 14.2396
ltoes -14.0125
472
root 1.24773 15.497 7.53551 19.9218 1.11605 -7.07097
lowerback 0.977022 0.301772 4.89302
upperback -5.28513 0.762267 2.92941
thorax -6.02765 0.219597 0.265188
lowerneck -15.5159 -4.00436 -7.90794
upperneck 15.1244 -4.89309 6.93737
head 7.57714 -2.1556 3.0361
rclavicle 1.08089e-014 -1.41137e-014
rhumerus -39.0149 11.4669 -78.5852
rradius 53.2315
rwrist 12.9118
rhand -27.5538 -51.707
rfingers 7.12502
rthumb -0.954982 -81.6846
lclavicle 1.08089e-014 -1.41137e-014
lhumerus -38.4392 -21.3812 77.3831
lradius 67.9203
lwrist -9.29476
lhand -30.978 -45.2659
lfingers 7.12502
lthumb -4.26188 -15.3288
rfemur -50.8028 0.994796 18.4288
rtibia 64.4784
rfoot -21.615 -20.4572
rtoes -23.6825
lfemur -54.0701 0.936206 -9.94799
ltibia 68.6042
lfoot -29.4509 13.4699
ltoes -13.6017
473
root 1.3419 15.7055 7.55009 19.5513 1.56713 -6.61822
lowerback 1.13185 0.167031 5.1767
upperback -5.65947 0.613816 2.69628
thorax -6.51814 0.111844 -0.122754
lowerneck -14.3393 -3.97219 -8.09459
upperneck 15.4986 -4.94112 7.08005
head 7.50601 -2.19965 3.12413
rclavicle -5.46658e-015 -7.7526e-015
rhumerus -40.2903 11.7506 -78.5405
rradius 53.7234
rwrist 12.5232
rhand -27.9056 -51.1918
rfingers 7.12502
rthumb -1.29473 -81.1676
lclavicle -5.46658e-015 -7.7526e-015
lhumerus -38.9672 -22.7444 77.2269
lradius 68.8804
lwrist -8.52002
lhand -31.2394 -44.6043
lfingers 7.12502
lthumb -4.51427 -14.6724
rfemur -48.7536 0.468563 17.6166
rtibia 61.953
rfoot -19.9755 -19.2316
rtoes -23.4073
lfemur -52.0509 0.0660452 -10.6523
ltibia 65.7043
lfoot -28.0585 13.2252
ltoes -14.051
474
root 1.39044 15.9369 7.62096 19.3707 1.51395 -6.42168
lowerback 0.130998 0.241263 4.79649
upperback -5.56884 0.617551 2.66483
thorax -5.8434 0.145553 0.0563751
lowerneck -13.9045 -4.04167 -8.25961
upperneck 15.8209 -5.07809 7.22746
head 7.55446 -2.27006 3.19218
rclavicle -5.91384e-015 -1.98785e-016
rhumerus -40.784 11.9112 -78.3881
rradius 54.0714
rwrist 12.1986
rhand -27.873 -51.2951
rfingers 7.12502
rthumb -1.26329 -81.2711
lclavicle -5.91384e-015 -1.98785e-016
lhumerus -38.8641 -23.8848 76.871
lradius 69.7415
lwrist -7.63821
lhand -31.4723 -44.0508
lfingers 7.12502
lthumb -4.73917 -14.1238
rfemur -46.9138 1.14915 16.9386
rtibia 59.3062
rfoot -18.0886 -17.8595
rtoes -21.8254
lfemur -49.8521 0.0166144 -11.0931
ltibia 62.5563
lfoot -26.6318 12.6
ltoes -14.5601
475
root 1.45143 16.1996 7.67342 19.0954 1.50574 -6.27558
lowerback -0.371479 0.245318 4.62386
upperback -5.6973 0.587089 2.63295
thorax -5.69205 0.139295 0.122977
lowerneck -13.059 -4.03407 -8.51714
upperneck 16.1459 -5.14796 7.49846
head 7.53111 -2.31226 3.32986
rclavicle -1.36664e-015 3.00165e-014
rhumerus -41.5463 12.1945 -78.3854
rradius 54.2825
rwrist 12.1112
rhand -27.2811 -52.1639
rfingers 7.12502
rthumb -0.691629 -82.1425
lclavicle -1.36664e-015 3.00165e-014
lhumerus -39.3068 -24.7565 76.6565
lradius 70.5424
lwrist -7.24259
lhand -31.6592 -43.8906
lfingers 7.12502
lthumb -4.91971 -13.9677
rfemur -45.307 1.91312 16.2498
rtibia 56.6243
rfoot -15.5327 -16.5165
rtoes -22.5465
lfemur -47.5188 -0.0635355 -11.4795
ltibia 59.1989
lfoot -25.0413 11.5547
ltoes -14.1697
476
root 1.53079 16.4255 7.71572 18.7142 1.828 -6.4949
lowerback -0.700619 0.149267 5.18243
upperback -5.89368 0.461699 2.67769
thorax -5.71819 0.0480124 -0.133095
lowerneck -11.8396 -3.97574 -8.70116
upperneck 16.3467 -5.17748 7.69904
head 7.39265 -2.34635 3.44037
rclavicle -1.41634e-015 4.37326e-015
rhumerus -42.4749 12.5496 -78.5294
rradius 54.2721
rwrist 12.2958
rhand -27.5141 -51.8146
rfingers 7.12502
rthumb -0.91661 -81.7923
lclavicle -1.41634e-015 4.37326e-015
lhumerus -40.1168 -25.3903 76.5873
lradius 71.2684
lwrist -7.23414
lhand -31.8857 -43.3375
lfingers 7.12502
lthumb -5.13839 -13.4198
rfemur -42.9074 2.07973 16.1659
rtibia 53.8733
rfoot -12.2825 -15.9575
rtoes -31.5189
lfemur -45.2995 -0.326576 -11.4209
ltibia 55.9838
lfoot -23.1248 10.4635
ltoes -14.2174
477
root 1.58947 16.6761 7.7693 18.4821 1.61218 -6.54171
lowerback -1.35423 0.254771 5.04094
upperback -5.74109 0.54585 2.75811
thorax -5.17935 0.110749 0.0252929
lowerneck -12.616 -4.34023 -8.37062
upperneck 17.6058 -5.60626 6.94775
head 7.95256 -2.57951 3.08658
rclavicle -4.17448e-015 1.55052e-014
rhumerus -42.7014 12.601 -78.4025
rradius 54.3037
rwrist 12.5348
rhand -28.3497 -50.7114
rfingers 7.12502
rthumb -1.72368 -80.6842
lclavicle -4.17448e-015 1.55052e-014
lhumerus -40.1445 -25.9056 76.4188
lradius 71.7331
lwrist -7.31088
lhand -32.2261 -43.3798
lfingers 7.12502
lthumb -5.46704 -13.4704
rfemur -41.1443 3.02515 15.6889
rtibia 51.2086
rfoot -8.36945 -14.9149
rtoes -34.5129
lfemur -43.0716 -0.242669 -11.5585
ltibia 52.6034
lfoot -20.8044 9.23768
ltoes -14.3659
